<svg xmlns="http://www.w3.org/2000/svg" viewBox="194.2 115 161.6 139.2">
	<path d="M226.83326,119.36953c0.31752,-1.14187 1.23283,-2.59201 2.03421,-3.22319c1.39096,-1.09364 2.18855,-1.14633 17.38626,-1.14633c17.28841,0 18.36597,0.1676 19.68654,3.06735c0.71521,1.569 1.00242,29.44475 0.30395,29.44475c-0.202,0 -1.71322,-1.27361 -3.35889,-2.83028c-6.05339,-5.72492 -11.87322,-7.24737 -27.73627,-7.2552l-8.19807,-0.00452l-0.35034,-1.75173c-0.55929,-2.79604 -0.39895,-14.02614 0.23262,-16.30086zM316.24318,119.01637c0.16602,-0.72032 0.95856,-1.91821 1.76183,-2.66264l1.46072,-1.35374h32.46056l1.93732,1.93727l1.93668,1.93672l-0.22094,39.40411c-0.23704,42.29926 -0.17359,41.31671 -3.24432,50.40548c-3.65873,10.8285 -9.18314,19.73421 -16.79383,27.07061c-8.67056,8.35841 -18.55755,13.91974 -30.19121,16.98258c-4.64854,1.22431 -6.61615,1.42253 -14.35562,1.44904c-10.20608,0.03409 -14.79466,-0.74109 -22.98294,-3.88535c-17.86191,-6.85887 -31.87445,-21.31044 -38.28039,-39.47946c-0.93078,-2.63863 -1.7795,-5.66549 -1.88586,-6.72662l-0.19348,-1.92848l19.76009,-0.1474l19.76072,-0.1474l1.72711,2.80718c2.12985,3.46147 6.40185,7.26603 10.3074,9.17809c11.8606,5.8072 25.5493,1.69681 32.23331,-9.68025c0.90553,-1.54089 1.61443,-2.67619 2.17119,-3.88126c2.11533,-4.58194 2.03074,-10.1802 2.17151,-42.97312c0.0868,-20.34809 0.29416,-37.58564 0.46018,-38.30539zM207.75215,150.6832c0,-2.16677 1.1996,-4.00814 3.56904,-5.47839c1.66373,-1.03197 2.76242,-1.0813 20.81491,-0.93273l19.05876,0.15693l3.64358,1.74333c4.45759,2.13357 7.37807,4.68888 15.29493,13.38595c8.06393,8.85836 9.07804,10.8001 9.08151,17.38279c0.00158,4.01413 -0.24966,5.591 -1.22936,7.71769c-1.70754,3.7064 -6.16386,7.88402 -10.10729,9.47668c-3.20014,1.29217 -3.47284,1.30543 -29.75154,1.46482l-26.5207,0.16129l-1.92722,-1.92722c-1.63457,-1.63431 -1.92661,-2.31543 -1.92661,-4.49609c0,-2.0421 0.33299,-2.94227 1.62169,-4.38468c1.606,-1.79749 1.68333,-1.81832 7.98787,-2.13805c6.84325,-0.34688 8.62253,-0.93836 11.20718,-3.72249c3.57793,-3.85442 4.46485,-8.9824 2.35804,-13.64326c-2.45557,-5.43445 -6.8072,-7.84615 -14.16558,-7.84993c-6.3729,-0.00284 -9.0092,-2.02695 -9.0092,-6.91663zM195.93346,174.5499c-2.6901,-3.01297 -2.17888,-7.59965 1.04206,-9.34727c1.20519,-0.6543 3.99561,-0.83357 13.21501,-0.85156l11.68754,-0.02241l1.90588,1.90575c2.24666,2.24694 2.50895,4.66559 0.80942,7.45319c-1.65025,2.70681 -3.76072,3.08146 -16.18764,2.87409l-10.83772,-0.18117z" fill="#FF5C00"/>
</svg>